<svg width="1322" height="1285" viewBox="0 0 1322 1285" fill="none" xmlns="http://www.w3.org/2000/svg">
<rect width="1322" height="1285" fill="#E5E5E5"/>
<rect y="-1" width="1322" height="1286" fill="#91E4FF"/>
<g opacity="0.2" filter="url(#filter0_d)">
<path fill-rule="evenodd" clip-rule="evenodd" d="M898.272 483.292C926.265 480.968 954.806 469.554 980.447 481.042C1008.67 493.686 1038.91 516.787 1041.84 547.616C1044.79 578.709 1007.02 597.102 994.158 625.553C983.517 649.086 990.491 678.727 973.689 698.327C954.788 720.377 926.94 741.875 898.272 737.406C869.576 732.932 861.813 694.104 838.176 677.202C814.193 660.052 772.333 666.249 760.786 639.093C749.407 612.334 775.8 584.894 787.628 558.331C798.011 535.012 804.323 508.226 825.43 493.911C846.258 479.786 873.206 485.373 898.272 483.292Z" fill="white"/>
</g>
<path opacity="0.3" fill-rule="evenodd" clip-rule="evenodd" d="M460.336 54.0137C512.35 59.5446 567.606 73.8048 600.498 116.975C632.773 159.337 725.737 183.92 730.561 239.363C735.309 293.934 650.549 387.039 628.365 437.265C605.526 488.976 559.079 524.65 510.34 546.564C463.467 567.64 349.051 643.491 299.527 636.58C247.494 629.318 229.397 537.125 191.608 498.602C152.696 458.934 107.48 433.111 102.71 374.609C98.0086 316.949 161.673 229.689 191.608 180.504C222.867 74.4666 270.143 109.415 317.918 86.9272C363.815 65.3235 411.31 48.8005 460.336 54.0137Z" fill="white"/>
<path d="M406.737 862.439C419.657 850.804 429.954 843.865 437.706 836.884C479.051 799.652 520.75 741.097 495.696 716.983C470.642 692.868 408.939 729.762 367.594 766.994C359.842 773.975 352.051 783.325 339.13 794.96L162.258 716.188C144.563 708.785 124.166 710.816 111.246 722.451L95.7808 734.044L261.491 871.877C227.78 909.236 191.564 944.183 173.397 965.21L145.641 950.53C133.036 943.211 115.223 942.916 104.847 954.593L97.0951 961.574L167.521 1012.51L217.315 1079.69L225.067 1072.71C235.403 1063.4 238.223 1046.86 230.786 1034.89L218.495 1008.62C241.672 992.412 280.394 959.876 321.621 929.752L464.074 1088.53L476.995 1076.89C489.915 1065.26 492.774 1046.35 485.415 1029.64L406.737 862.439Z" fill="white"/>
<path d="M367.125 766.986C408.452 729.754 470.681 692.869 495.724 716.983L351.652 844.148L207.579 971.313L197.23 985.623L173.309 965.209C191.468 944.181 227.372 909.229 261.068 871.87L338.674 794.952C351.588 783.317 359.376 773.967 367.125 766.986Z" fill="#EEEEEE"/>
<path d="M1124.74 463.439C1137.66 451.804 1147.95 444.865 1155.71 437.884C1197.05 400.652 1238.75 342.097 1213.7 317.983C1188.64 293.868 1126.94 330.762 1085.59 367.994C1077.84 374.975 1070.05 384.325 1057.13 395.96L880.258 317.188C862.563 309.785 842.166 311.816 829.246 323.451L813.781 335.044L979.491 472.877C945.78 510.236 909.564 545.183 891.397 566.21L863.641 551.53C851.036 544.211 833.223 543.916 822.847 555.593L815.095 562.574L885.521 613.51L935.315 680.693L943.067 673.712C953.403 664.404 956.223 647.862 948.786 635.889L936.495 609.616C959.672 593.412 998.394 560.876 1039.62 530.752L1182.07 689.529L1194.99 677.894C1207.91 666.259 1210.77 647.347 1203.42 630.636L1124.74 463.439Z" fill="white"/>
<path d="M1085.13 367.986C1126.45 330.754 1188.68 293.869 1213.72 317.983L1069.65 445.148L925.579 572.313L915.23 586.623L891.309 566.209C909.468 545.181 945.372 510.229 979.068 472.87L1056.67 395.952C1069.59 384.317 1077.38 374.967 1085.13 367.986Z" fill="#EEEEEE"/>
<path opacity="0.2" fill-rule="evenodd" clip-rule="evenodd" d="M308.372 770.395C347.23 770.282 387.081 754.8 422.958 769.718C460.162 785.187 482.858 821.311 507.487 853.187C535.251 889.12 569.777 923.151 576.231 968.091C582.96 1014.94 570.157 1064.66 543.477 1103.76C517.464 1141.89 476.529 1172.07 431.172 1180.68C388.869 1188.71 350.398 1157.77 308.372 1148.4C276.546 1141.3 244.657 1142.09 213.594 1132.17C175.887 1120.13 128.342 1117.63 107.197 1084.18C86.1522 1050.89 107.478 1007.4 109.867 968.091C112.105 931.271 106.36 893.8 120.829 859.866C136.217 823.78 158.751 787.28 194.169 770.382C229.12 753.709 269.645 770.507 308.372 770.395Z" fill="white"/>
<g opacity="0.2" filter="url(#filter1_d)">
<path fill-rule="evenodd" clip-rule="evenodd" d="M960.982 848.098C996.831 823.831 1004.93 844.062 1033.68 836.76C1075.83 826.053 1150.6 818.646 1164.87 859.695C1182.5 910.402 1066.09 943.216 1080.94 994.802C1097.06 1050.81 1210.39 1028.2 1229.26 1083.34C1242.49 1122.01 1177.07 1149.47 1138.79 1163.85C1103.46 1177.12 1061.28 1143.35 1027.07 1159.29C993.529 1174.93 994.205 1230.41 960.982 1246.71C928.541 1262.63 888.261 1255.58 853.946 1244.25C818.086 1232.4 835.777 1163.63 809.657 1136.38C782.236 1107.76 705.338 1121.05 698.496 1082.02C691.693 1043.21 756.991 1017.34 761.746 978.221C767.104 934.15 744.371 900.554 761.746 859.695C795.179 781.076 824.115 817.797 869.516 832.379C908.392 844.865 907.641 884.206 960.982 848.098Z" fill="white"/>
</g>
<defs>
<filter id="filter0_d" x="754" y="476" width="292" height="270" filterUnits="userSpaceOnUse" color-interpolation-filters="sRGB">
<feFlood flood-opacity="0" result="BackgroundImageFix"/>
<feColorMatrix in="SourceAlpha" type="matrix" values="0 0 0 0 0 0 0 0 0 0 0 0 0 0 0 0 0 0 127 0"/>
<feOffset dy="4"/>
<feGaussianBlur stdDeviation="2"/>
<feColorMatrix type="matrix" values="0 0 0 0 0 0 0 0 0 0 0 0 0 0 0 0 0 0 0.25 0"/>
<feBlend mode="normal" in2="BackgroundImageFix" result="effect1_dropShadow"/>
<feBlend mode="normal" in="SourceGraphic" in2="effect1_dropShadow" result="shape"/>
</filter>
<filter id="filter1_d" x="694" y="811" width="541" height="453" filterUnits="userSpaceOnUse" color-interpolation-filters="sRGB">
<feFlood flood-opacity="0" result="BackgroundImageFix"/>
<feColorMatrix in="SourceAlpha" type="matrix" values="0 0 0 0 0 0 0 0 0 0 0 0 0 0 0 0 0 0 127 0"/>
<feOffset dy="4"/>
<feGaussianBlur stdDeviation="2"/>
<feColorMatrix type="matrix" values="0 0 0 0 0 0 0 0 0 0 0 0 0 0 0 0 0 0 0.25 0"/>
<feBlend mode="normal" in2="BackgroundImageFix" result="effect1_dropShadow"/>
<feBlend mode="normal" in="SourceGraphic" in2="effect1_dropShadow" result="shape"/>
</filter>
</defs>
</svg>
