<svg width="432" height="132" viewBox="0 0 432 132" fill="none" xmlns="http://www.w3.org/2000/svg">
<path d="M84 90H71.136V61.776C71.136 57.744 70.432 54.8 69.024 52.944C67.68 51.088 65.792 50.16 63.36 50.16C60.8 50.16 58.4 51.152 56.16 53.136C53.92 55.056 52.32 57.584 51.36 60.72V90H38.496V61.776C38.496 57.744 37.792 54.8 36.384 52.944C35.04 51.088 33.152 50.16 30.72 50.16C28.224 50.16 25.824 51.12 23.52 53.04C21.28 54.96 19.68 57.488 18.72 60.624V90H5.856V39.696H17.472V49.008C19.328 45.744 21.856 43.248 25.056 41.52C28.32 39.728 32.032 38.832 36.192 38.832C40.416 38.832 43.68 39.856 45.984 41.904C48.288 43.952 49.76 46.48 50.4 49.488C52.448 46.032 55.04 43.408 58.176 41.616C61.312 39.76 64.896 38.832 68.928 38.832C72 38.832 74.528 39.408 76.512 40.56C78.496 41.712 80.032 43.216 81.12 45.072C82.208 46.928 82.944 49.04 83.328 51.408C83.776 53.776 84 56.176 84 58.608V90ZM118.528 90.96C114.496 90.96 110.848 90.288 107.584 88.944C104.32 87.536 101.536 85.648 99.2318 83.28C96.9278 80.912 95.1358 78.16 93.8558 75.024C92.6398 71.888 92.0318 68.592 92.0318 65.136C92.0318 61.552 92.6398 58.192 93.8558 55.056C95.0718 51.856 96.8318 49.072 99.1358 46.704C101.44 44.272 104.224 42.352 107.488 40.944C110.816 39.536 114.528 38.832 118.624 38.832C122.72 38.832 126.368 39.536 129.568 40.944C132.832 42.352 135.584 44.24 137.824 46.608C140.128 48.976 141.856 51.728 143.008 54.864C144.224 58 144.832 61.264 144.832 64.656C144.832 65.488 144.8 66.288 144.736 67.056C144.736 67.824 144.672 68.464 144.544 68.976H105.664C105.856 70.96 106.336 72.72 107.104 74.256C107.872 75.792 108.864 77.104 110.08 78.192C111.296 79.28 112.672 80.112 114.208 80.688C115.744 81.264 117.344 81.552 119.008 81.552C121.568 81.552 123.968 80.944 126.208 79.728C128.512 78.448 130.08 76.784 130.912 74.736L141.952 77.808C140.096 81.648 137.12 84.816 133.024 87.312C128.992 89.744 124.16 90.96 118.528 90.96ZM131.584 60.624C131.264 56.848 129.856 53.84 127.36 51.6C124.928 49.296 121.952 48.144 118.432 48.144C116.704 48.144 115.072 48.464 113.536 49.104C112.064 49.68 110.752 50.512 109.6 51.6C108.448 52.688 107.488 54 106.72 55.536C106.016 57.072 105.6 58.768 105.472 60.624H131.584ZM182.621 50.832C178.717 50.896 175.229 51.664 172.156 53.136C169.085 54.544 166.877 56.688 165.533 59.568V90H152.669V39.696H164.477V50.448C165.373 48.72 166.429 47.184 167.645 45.84C168.861 44.432 170.173 43.216 171.581 42.192C172.989 41.168 174.397 40.4 175.805 39.888C177.277 39.312 178.685 39.024 180.029 39.024C180.733 39.024 181.245 39.024 181.565 39.024C181.949 39.024 182.301 39.056 182.621 39.12V50.832ZM189.698 19.92H202.562V73.872C202.562 75.728 203.01 77.168 203.906 78.192C204.802 79.216 206.082 79.728 207.746 79.728C208.514 79.728 209.346 79.6 210.242 79.344C211.202 79.088 212.098 78.768 212.93 78.384L214.658 88.176C212.93 89.008 210.914 89.648 208.609 90.096C206.306 90.544 204.226 90.768 202.37 90.768C198.338 90.768 195.202 89.712 192.962 87.6C190.786 85.424 189.698 82.352 189.698 78.384V19.92ZM220.262 90V39.696H233.126V90H220.262ZM220.262 32.688V19.92H233.126V32.688H220.262ZM291.483 90H278.619V61.776C278.619 57.744 277.915 54.8 276.507 52.944C275.099 51.088 273.147 50.16 270.651 50.16C269.371 50.16 268.059 50.416 266.715 50.928C265.371 51.44 264.091 52.176 262.875 53.136C261.723 54.032 260.667 55.12 259.707 56.4C258.747 57.68 258.043 59.088 257.595 60.624V90H244.731V39.696H256.347V49.008C258.203 45.808 260.891 43.312 264.411 41.52C267.931 39.728 271.899 38.832 276.315 38.832C279.451 38.832 282.011 39.408 283.995 40.56C285.979 41.712 287.515 43.216 288.603 45.072C289.691 46.928 290.427 49.04 290.811 51.408C291.259 53.776 291.483 56.176 291.483 58.608V90Z" fill="white"/>
<path d="M387.047 90C383.006 90 379.375 89.3112 376.155 87.9337C372.934 86.5562 370.188 84.709 367.914 82.3923C365.704 80.0129 363.999 77.2891 362.8 74.221C361.6 71.1529 361 67.9282 361 64.547C361 61.1031 361.6 57.8471 362.8 54.779C363.999 51.7109 365.704 49.0184 367.914 46.7017C370.188 44.3223 372.934 42.4438 376.155 41.0663C379.375 39.6888 383.006 39 387.047 39C391.089 39 394.688 39.6888 397.845 41.0663C401.066 42.4438 403.781 44.3223 405.991 46.7017C408.264 49.0184 410.001 51.7109 411.2 54.779C412.4 57.8471 413 61.1031 413 64.547C413 67.9282 412.4 71.1529 411.2 74.221C410.001 77.2891 408.296 80.0129 406.086 82.3923C403.876 84.709 401.16 86.5562 397.94 87.9337C394.719 89.3112 391.089 90 387.047 90ZM374.071 64.547C374.071 66.7385 374.387 68.7422 375.018 70.558C375.713 72.3112 376.628 73.8453 377.765 75.1602C378.965 76.4751 380.354 77.5083 381.933 78.2597C383.511 78.9484 385.216 79.2928 387.047 79.2928C388.879 79.2928 390.583 78.9484 392.162 78.2597C393.741 77.5083 395.098 76.4751 396.235 75.1602C397.435 73.8453 398.35 72.2799 398.982 70.4641C399.676 68.6483 400.024 66.6446 400.024 64.453C400.024 62.3241 399.676 60.3518 398.982 58.5359C398.35 56.7201 397.435 55.1547 396.235 53.8398C395.098 52.5249 393.741 51.523 392.162 50.8343C390.583 50.0829 388.879 49.7072 387.047 49.7072C385.216 49.7072 383.511 50.0829 381.933 50.8343C380.354 51.5856 378.965 52.6188 377.765 53.9337C376.628 55.2486 375.713 56.814 375.018 58.6298C374.387 60.4457 374.071 62.4181 374.071 64.547Z" fill="white"/>
<path d="M322.656 88.178C319.264 88.178 316.192 87.5357 313.44 86.2512C310.688 84.9667 308.288 83.2235 306.24 81.0215C304.256 78.7583 302.72 76.1587 301.632 73.2227C300.544 70.2867 300 67.1672 300 63.8642C300 60.3777 300.576 57.1359 301.728 54.1387C302.88 51.1416 304.48 48.5114 306.528 46.2482C308.576 43.9851 311.04 42.2113 313.92 40.9268C316.8 39.6423 319.968 39 323.424 39C327.328 39 330.752 39.8563 333.696 41.569C336.64 43.2205 339.072 45.4531 340.992 48.2667V39.8258H352.224V85.609C352.224 89.1566 351.52 92.3373 350.112 95.151C348.704 97.9646 353.496 107.289 351 109.246C336.29 121.085 347.64 95.4185 344 79.5535H339.36C337.696 82.306 335.36 84.4468 332.352 85.976C329.344 87.444 326.112 88.178 322.656 88.178ZM326.976 78.3607C328.384 78.3607 329.728 78.1466 331.008 77.7185C332.288 77.2903 333.472 76.7092 334.56 75.9752C335.648 75.2412 336.608 74.3849 337.44 73.4062C338.272 72.4276 338.912 71.3877 339.36 70.2867V58.818C338.208 56.0043 336.384 53.7412 333.888 52.0285C331.456 50.3158 328.896 49.4595 326.208 49.4595C324.224 49.4595 322.432 49.8877 320.832 50.744C319.232 51.5392 317.856 52.6402 316.704 54.047C315.552 55.3927 314.656 56.9524 314.016 58.7262C313.44 60.5001 313.152 62.3351 313.152 64.2312C313.152 66.1886 313.504 68.0236 314.208 69.7362C314.912 71.4489 315.872 72.9475 317.088 74.232C318.368 75.5165 319.84 76.5257 321.504 77.2597C323.168 77.9937 324.992 78.3607 326.976 78.3607Z" fill="white"/>
<path d="M351 119.281C352.408 116.468 352.224 112.316 352.224 108.768L340.02 106.379C340.02 108.703 339.712 113.589 338.88 115.302C338.112 117.014 337.024 118.421 335.616 119.522C334.208 120.623 332.576 121.418 330.72 121.908C328.928 122.458 327.04 122.733 325.056 122.733C321.792 122.733 318.688 122.091 315.744 120.807C312.864 119.522 310.464 117.748 308.544 115.485L301.632 121.908C304.32 125.088 307.424 127.627 311.136 129.339C314.912 131.113 319.552 132 325.056 132C329.088 132 332.8 131.48 336.192 130.44C339.648 129.4 342.592 127.902 345.024 125.945C347.52 123.987 349.592 122.095 351 119.281Z" fill="white"/>
<path d="M340 68.6276H352.21V110.591L340 118.325V68.6276Z" fill="white"/>
<path d="M390.987 63.2862C391.393 62.8802 391.718 62.6366 391.962 62.393C393.261 61.0939 394.56 59.0639 393.748 58.2519C392.936 57.44 390.987 58.7391 389.688 60.0383C389.445 60.2819 389.201 60.6067 388.795 61.0127L383.111 58.4143C382.543 58.1707 381.893 58.2519 381.487 58.6579L381 59.0639L386.359 63.6922C385.303 64.9914 384.167 66.2093 383.598 66.9401L382.705 66.4529C382.299 66.2093 381.731 66.2093 381.406 66.6153L381.162 66.8589L383.436 68.5641L385.06 70.8376L385.303 70.594C385.628 70.2692 385.709 69.7008 385.466 69.2948L385.06 68.4017C385.791 67.8333 387.009 66.6965 388.308 65.6409L392.936 71L393.342 70.594C393.748 70.188 393.829 69.5384 393.586 68.9701L390.987 63.2862Z" fill="white"/>
</svg>
