<svg width="432" height="128" viewBox="0 0 432 128" fill="none" xmlns="http://www.w3.org/2000/svg">
<path d="M84 90H71.136V61.776C71.136 57.744 70.432 54.8 69.024 52.944C67.68 51.088 65.792 50.16 63.36 50.16C60.8 50.16 58.4 51.152 56.16 53.136C53.92 55.056 52.32 57.584 51.36 60.72V90H38.496V61.776C38.496 57.744 37.792 54.8 36.384 52.944C35.04 51.088 33.152 50.16 30.72 50.16C28.224 50.16 25.824 51.12 23.52 53.04C21.28 54.96 19.68 57.488 18.72 60.624V90H5.856V39.696H17.472V49.008C19.328 45.744 21.856 43.248 25.056 41.52C28.32 39.728 32.032 38.832 36.192 38.832C40.416 38.832 43.68 39.856 45.984 41.904C48.288 43.952 49.76 46.48 50.4 49.488C52.448 46.032 55.04 43.408 58.176 41.616C61.312 39.76 64.896 38.832 68.928 38.832C72 38.832 74.528 39.408 76.512 40.56C78.496 41.712 80.032 43.216 81.12 45.072C82.208 46.928 82.944 49.04 83.328 51.408C83.776 53.776 84 56.176 84 58.608V90ZM118.528 90.96C114.496 90.96 110.848 90.288 107.584 88.944C104.32 87.536 101.536 85.648 99.2318 83.28C96.9278 80.912 95.1358 78.16 93.8558 75.024C92.6398 71.888 92.0318 68.592 92.0318 65.136C92.0318 61.552 92.6398 58.192 93.8558 55.056C95.0718 51.856 96.8318 49.072 99.1358 46.704C101.44 44.272 104.224 42.352 107.488 40.944C110.816 39.536 114.528 38.832 118.624 38.832C122.72 38.832 126.368 39.536 129.568 40.944C132.832 42.352 135.584 44.24 137.824 46.608C140.128 48.976 141.856 51.728 143.008 54.864C144.224 58 144.832 61.264 144.832 64.656C144.832 65.488 144.8 66.288 144.736 67.056C144.736 67.824 144.672 68.464 144.544 68.976H105.664C105.856 70.96 106.336 72.72 107.104 74.256C107.872 75.792 108.864 77.104 110.08 78.192C111.296 79.28 112.672 80.112 114.208 80.688C115.744 81.264 117.344 81.552 119.008 81.552C121.568 81.552 123.968 80.944 126.208 79.728C128.512 78.448 130.08 76.784 130.912 74.736L141.952 77.808C140.096 81.648 137.12 84.816 133.024 87.312C128.992 89.744 124.16 90.96 118.528 90.96ZM131.584 60.624C131.264 56.848 129.856 53.84 127.36 51.6C124.928 49.296 121.952 48.144 118.432 48.144C116.704 48.144 115.072 48.464 113.536 49.104C112.064 49.68 110.752 50.512 109.6 51.6C108.448 52.688 107.488 54 106.72 55.536C106.016 57.072 105.6 58.768 105.472 60.624H131.584ZM182.621 50.832C178.717 50.896 175.229 51.664 172.156 53.136C169.085 54.544 166.877 56.688 165.533 59.568V90H152.669V39.696H164.477V50.448C165.373 48.72 166.429 47.184 167.645 45.84C168.861 44.432 170.173 43.216 171.581 42.192C172.989 41.168 174.397 40.4 175.805 39.888C177.277 39.312 178.685 39.024 180.029 39.024C180.733 39.024 181.245 39.024 181.565 39.024C181.949 39.024 182.301 39.056 182.621 39.12V50.832ZM189.698 19.92H202.562V73.872C202.562 75.728 203.01 77.168 203.906 78.192C204.802 79.216 206.082 79.728 207.746 79.728C208.514 79.728 209.346 79.6 210.242 79.344C211.202 79.088 212.098 78.768 212.93 78.384L214.658 88.176C212.93 89.008 210.914 89.648 208.609 90.096C206.306 90.544 204.226 90.768 202.37 90.768C198.338 90.768 195.202 89.712 192.962 87.6C190.786 85.424 189.698 82.352 189.698 78.384V19.92ZM220.262 90V39.696H233.126V90H220.262ZM220.262 32.688V19.92H233.126V32.688H220.262ZM291.483 90H278.619V61.776C278.619 57.744 277.915 54.8 276.507 52.944C275.099 51.088 273.147 50.16 270.651 50.16C269.371 50.16 268.059 50.416 266.715 50.928C265.371 51.44 264.091 52.176 262.875 53.136C261.723 54.032 260.667 55.12 259.707 56.4C258.747 57.68 258.043 59.088 257.595 60.624V90H244.731V39.696H256.347V49.008C258.203 45.808 260.891 43.312 264.411 41.52C267.931 39.728 271.899 38.832 276.315 38.832C279.451 38.832 282.011 39.408 283.995 40.56C285.979 41.712 287.515 43.216 288.603 45.072C289.691 46.928 290.427 49.04 290.811 51.408C291.259 53.776 291.483 56.176 291.483 58.608V90ZM322.349 90.288C318.957 90.288 315.885 89.616 313.133 88.272C310.381 86.928 307.981 85.104 305.933 82.8C303.949 80.432 302.413 77.712 301.325 74.64C300.237 71.568 299.693 68.304 299.693 64.848C299.693 61.2 300.269 57.808 301.421 54.672C302.572 51.536 304.173 48.784 306.221 46.416C308.269 44.048 310.733 42.192 313.613 40.848C316.493 39.504 319.661 38.832 323.117 38.832C327.021 38.832 330.445 39.728 333.389 41.52C336.333 43.248 338.765 45.584 340.685 48.528V39.696H351.917V87.6C351.917 91.312 351.213 94.64 349.805 97.584C348.397 100.528 346.445 103.024 343.949 105.072C341.517 107.12 338.573 108.688 335.117 109.776C331.725 110.864 328.013 111.408 323.981 111.408C318.477 111.408 313.837 110.48 310.061 108.624C306.349 106.832 303.149 104.272 300.461 100.944L307.469 94.128C309.389 96.496 311.789 98.352 314.669 99.696C317.613 101.04 320.717 101.712 323.981 101.712C325.965 101.712 327.853 101.424 329.645 100.848C331.501 100.336 333.133 99.504 334.541 98.352C335.949 97.2 337.037 95.728 337.805 93.936C338.637 92.144 339.053 90.032 339.053 87.6V81.264C337.389 84.144 335.053 86.384 332.045 87.984C329.037 89.52 325.805 90.288 322.349 90.288ZM326.669 80.016C328.077 80.016 329.421 79.792 330.701 79.344C331.981 78.896 333.165 78.288 334.253 77.52C335.341 76.752 336.301 75.856 337.133 74.832C337.965 73.808 338.605 72.72 339.053 71.568V59.568C337.901 56.624 336.077 54.256 333.581 52.464C331.149 50.672 328.589 49.776 325.901 49.776C323.917 49.776 322.125 50.224 320.525 51.12C318.925 51.952 317.549 53.104 316.397 54.576C315.245 55.984 314.349 57.616 313.709 59.472C313.133 61.328 312.845 63.248 312.845 65.232C312.845 67.28 313.197 69.2 313.901 70.992C314.605 72.784 315.565 74.352 316.781 75.696C318.061 77.04 319.533 78.096 321.197 78.864C322.861 79.632 324.685 80.016 326.669 80.016ZM386.744 90.96C382.648 90.96 378.968 90.256 375.704 88.848C372.44 87.44 369.656 85.552 367.352 83.184C365.112 80.752 363.384 77.968 362.168 74.832C360.952 71.696 360.344 68.4 360.344 64.944C360.344 61.424 360.952 58.096 362.168 54.96C363.384 51.824 365.112 49.072 367.352 46.704C369.656 44.272 372.44 42.352 375.704 40.944C378.968 39.536 382.648 38.832 386.744 38.832C390.84 38.832 394.488 39.536 397.688 40.944C400.952 42.352 403.704 44.272 405.944 46.704C408.248 49.072 410.008 51.824 411.224 54.96C412.44 58.096 413.048 61.424 413.048 64.944C413.048 68.4 412.44 71.696 411.224 74.832C410.008 77.968 408.28 80.752 406.04 83.184C403.8 85.552 401.048 87.44 397.784 88.848C394.52 90.256 390.84 90.96 386.744 90.96ZM373.592 64.944C373.592 67.184 373.912 69.232 374.552 71.088C375.256 72.88 376.184 74.448 377.336 75.792C378.552 77.136 379.96 78.192 381.56 78.96C383.16 79.664 384.888 80.016 386.744 80.016C388.6 80.016 390.328 79.664 391.928 78.96C393.528 78.192 394.904 77.136 396.056 75.792C397.272 74.448 398.2 72.848 398.84 70.992C399.544 69.136 399.896 67.088 399.896 64.848C399.896 62.672 399.544 60.656 398.84 58.8C398.2 56.944 397.272 55.344 396.056 54C394.904 52.656 393.528 51.632 391.928 50.928C390.328 50.16 388.6 49.776 386.744 49.776C384.888 49.776 383.16 50.16 381.56 50.928C379.96 51.696 378.552 52.752 377.336 54.096C376.184 55.44 375.256 57.04 374.552 58.896C373.912 60.752 373.592 62.768 373.592 64.944Z" fill="white"/>
</svg>
